HIERARCHY
ROOT hip
{
  OFFSET 0 0 0
  CHANNELS 6 Xposition Yposition Zposition Zrotation Yrotation Xrotation
  JOINT abdomen
  {
    OFFSET 0 20.6881 -0.73152
    CHANNELS 3 Zrotation Xrotation Yrotation
    JOINT chest
    {
      OFFSET 0 11.7043 -0.48768
      CHANNELS 3 Zrotation Xrotation Yrotation
      JOINT neck
      {
        OFFSET 0 22.1894 -2.19456
        CHANNELS 3 Zrotation Xrotation Yrotation
        JOINT head
        {
          OFFSET -0.24384 7.07133 1.2192
          CHANNELS 3 Zrotation Xrotation Yrotation
          JOINT leftEye
          {
            OFFSET 4.14528 8.04674 8.04672
            CHANNELS 3 Zrotation Xrotation Yrotation
            End Site
            {
              OFFSET 1 0 0
            }
          }
          JOINT rightEye
          {
            OFFSET -3.6576 8.04674 8.04672
            CHANNELS 3 Zrotation Xrotation Yrotation
            End Site
            {
              OFFSET 1 0 0
            }
          }
        }
      }
      JOINT rCollar
      {
        OFFSET -2.68224 19.2634 -4.8768
        CHANNELS 3 Zrotation Xrotation Yrotation
        JOINT rShldr
        {
          OFFSET -8.77824 -1.95073 1.46304
          CHANNELS 3 Zrotation Xrotation Yrotation
          JOINT rForeArm
          {
            OFFSET -28.1742 -1.7115 0.48768
            CHANNELS 3 Zrotation Xrotation Yrotation
            JOINT rHand
            {
              OFFSET -22.5879 0.773209 7.07136
              CHANNELS 3 Zrotation Xrotation Yrotation
              JOINT rThumb1
              {
                OFFSET -1.2192 -0.487915 3.41376
                CHANNELS 3 Zrotation Xrotation Yrotation
                JOINT rThumb2
                {
                  OFFSET -3.37035 -0.52449 3.41376
                  CHANNELS 3 Zrotation Xrotation Yrotation
                  End Site
                  {
                    OFFSET -1.78271 -1.18214 1.43049
                  }
                }
              }
              JOINT rIndex1
              {
                OFFSET -7.75947 0.938293 5.60832
                CHANNELS 3 Zrotation Xrotation Yrotation
                JOINT rIndex2
                {
                  OFFSET -2.54057 -0.884171 1.56538
                  CHANNELS 3 Zrotation Xrotation Yrotation
                  End Site
                  {
                    OFFSET -1.62519 -0.234802 1.16502
                  }
                }
              }
              JOINT rMid1
              {
                OFFSET -8.24714 1.18213 3.41376
                CHANNELS 3 Zrotation Xrotation Yrotation
                JOINT rMid2
                {
                  OFFSET -3.10165 -0.590103 1.0647
                  CHANNELS 3 Zrotation Xrotation Yrotation
                  End Site
                  {
                    OFFSET -2.48547 -0.328903 0.83742
                  }
                }
              }
              JOINT rRing1
              {
                OFFSET -8.82822 0.546677 1.51678
                CHANNELS 3 Zrotation Xrotation Yrotation
                JOINT rRing2
                {
                  OFFSET -2.60934 -0.819778 -0.0198488
                  CHANNELS 3 Zrotation Xrotation Yrotation
                  End Site
                  {
                    OFFSET -2.33842 -0.294052 0.168128
                  }
                }
              }
              JOINT rPinky1
              {
                OFFSET -8.27202 -0.0477905 -0.4584
                CHANNELS 3 Zrotation Xrotation Yrotation
                JOINT rPinky2
                {
                  OFFSET -1.82734 -0.647385 -0.700984
                  CHANNELS 3 Zrotation Xrotation Yrotation
                  End Site
                  {
                    OFFSET -1.69225 -0.51767 -0.607171
                  }
                }
              }
            }
          }
        }
      }
      JOINT lCollar
      {
        OFFSET 2.68224 19.2634 -4.8768
        CHANNELS 3 Zrotation Xrotation Yrotation
        JOINT lShldr
        {
          OFFSET 8.77824 -1.95073 1.46304
          CHANNELS 3 Zrotation Xrotation Yrotation
          JOINT lForeArm
          {
            OFFSET 28.1742 -1.7115 0.48768
            CHANNELS 3 Zrotation Xrotation Yrotation
            JOINT lHand
            {
              OFFSET 22.5879 0.773209 7.07136
              CHANNELS 3 Zrotation Xrotation Yrotation
              JOINT lThumb1
              {
                OFFSET 1.2192 -0.487915 3.41376
                CHANNELS 3 Zrotation Xrotation Yrotation
                JOINT lThumb2
                {
                  OFFSET 3.37035 -0.52449 3.41376
                  CHANNELS 3 Zrotation Xrotation Yrotation
                  End Site
                  {
                    OFFSET 1.78271 -1.18214 1.43049
                  }
                }
              }
              JOINT lIndex1
              {
                OFFSET 7.75947 0.938293 5.60832
                CHANNELS 3 Zrotation Xrotation Yrotation
                JOINT lIndex2
                {
                  OFFSET 2.54057 -0.884171 1.56538
                  CHANNELS 3 Zrotation Xrotation Yrotation
                  End Site
                  {
                    OFFSET 1.62519 -0.234802 1.16502
                  }
                }
              }
              JOINT lMid1
              {
                OFFSET 8.24714 1.18213 3.41376
                CHANNELS 3 Zrotation Xrotation Yrotation
                JOINT lMid2
                {
                  OFFSET 3.10165 -0.590103 1.0647
                  CHANNELS 3 Zrotation Xrotation Yrotation
                  End Site
                  {
                    OFFSET 2.48547 -0.328903 0.83742
                  }
                }
              }
              JOINT lRing1
              {
                OFFSET 8.82822 0.546677 1.51678
                CHANNELS 3 Zrotation Xrotation Yrotation
                JOINT lRing2
                {
                  OFFSET 2.60934 -0.819778 -0.0198488
                  CHANNELS 3 Zrotation Xrotation Yrotation
                  End Site
                  {
                    OFFSET 2.33842 -0.294052 0.168128
                  }
                }
              }
              JOINT lPinky1
              {
                OFFSET 8.27202 -0.0477905 -0.4584
                CHANNELS 3 Zrotation Xrotation Yrotation
                JOINT lPinky2
                {
                  OFFSET 1.82734 -0.647385 -0.700984
                  CHANNELS 3 Zrotation Xrotation Yrotation
                  End Site
                  {
                    OFFSET 1.69225 -0.51767 -0.607171
                  }
                }
              }
            }
          }
        }
      }
    }
  }
  JOINT rButtock
  {
    OFFSET -8.77824 4.35084 1.2192
    CHANNELS 3 Zrotation Xrotation Yrotation
    JOINT rThigh
    {
      OFFSET 0 -1.70687 -2.19456
      CHANNELS 3 Zrotation Xrotation Yrotation
      JOINT rShin
      {
        OFFSET 0 -36.8199 0.73152
        CHANNELS 3 Zrotation Xrotation Yrotation
        JOINT rFoot
        {
          OFFSET 0.73152 -45.1104 -5.12064
          CHANNELS 3 Zrotation Xrotation Yrotation
          End Site
          {
            OFFSET -1.1221 -3.69964 12.103
          }
        }
      }
    }
  }
  JOINT lButtock
  {
    OFFSET 8.77824 4.35084 1.2192
    CHANNELS 3 Zrotation Xrotation Yrotation
    JOINT lThigh
    {
      OFFSET 0 -1.70687 -2.19456
      CHANNELS 3 Zrotation Xrotation Yrotation
      JOINT lShin
      {
        OFFSET 0 -36.8199 0.73152
        CHANNELS 3 Zrotation Xrotation Yrotation
        JOINT lFoot
        {
          OFFSET -0.73152 -45.1104 -5.12064
          CHANNELS 3 Zrotation Xrotation Yrotation
          End Site
          {
            OFFSET 1.1221 -3.69964 12.103
          }
        }
      }
    }
  }
}
MOTION
Frames:	4
Frame Time:	0.03333
-1.4134773053228855 33.54431986808777 0.05117504624649882 -2.7492646928250837 2.4275890364571056 1.371449905146139 -0.06734209003918204 8.592966225918309 1.8967862211948536 2.202443589855271 -4.239337054607773 0.674153118015187 -2.9086437420127464 7.62914201043853 -0.8219198851184758 4.393779584572809 -13.600503194213879 -2.0153672698095604 0.3883957189450132 0.5941329695768448 -1.11413362722331 -0.5591203526743016 0.9298612065535955 0.4307569257034025 0.4803144838043407 0.986073343257683 0.7687708748137274 23.947232333880617 16.75232813766211 8.34122765122644 -12.410378589832298 -15.335401979248381 33.493984104746076 -2.201740934144406 -5.544686950287468 -2.3593738027820725 0.5618829507501603 0.3521307495055512 0.6396545795693931 -0.05484647239605528 0.7896795779670174 1.2561270702089398 -0.09845225434705464 0.04509037425991187 0.12372387423482248 3.9477725006392075 1.779708027640961 0.9569837810260103 0.6492584125118128 -0.09989663925331399 0.1948470209283487 1.6828420713884285 1.4862224829683293 -0.971783306853547 0.19079690551351627 -0.3246038064899304 0.02179868047070127 5.076202994455824 -0.6423567731597793 -0.8801982607681981 -0.1188272022290919 0.1950614515156901 1.1039154507815594 1.381378332156693 0.3603397030729809 -0.2969197424429729 0.4731699992108016 0.7819071428566602 0.23403517793044398 -30.214137510589712 16.523405809892672 -11.678703966504791 12.499655992473535 -14.654232335964887 -31.220787865939116 2.1402730735956994 -5.895061567443959 2.499087456688799 0.9241249148678425 0.12329502640035295 0.5004013231014077 0.23388128523070714 1.1641833324704594 0.36489538588852655 0.13090944668508744 -0.10122210949890637 -0.6029938593644669 -3.8000005041723353 2.8986902354013337 -0.09678670204577645 0.8274946001416756 0.6936672886390307 -0.9112075330434675 -1.2400704694090032 -1.0574687770432973 -1.1768136329062822 -0.2720138044800652 0.49727480400883445 0.28078470118928717 -4.910129932994725 -0.712290546463011 0.2928853417993168 0.7446202864039143 -0.963178228994683 -0.7109693851062896 -1.0889911672799641 0.653218588209098 -0.09418363957984789 -0.8068001941735947 0.6217423551101817 -0.31607492792899433 -15.605638413759936 -18.426774625900126 -14.564720999344578 -2.758468799618499 31.653999444236344 3.608842719210719 -1.7892297382307818 -5.473325560725997 -4.690210648325008 0.7050951556158142 -1.2874496774123836 0.09511921541358097 18.25594134947435 -18.44837509915029 16.233863845692078 2.3908404842883213 31.317318929478905 -2.6298883540588935 3.4416469454048 -4.317110711139415 6.654631110228621
-2.504376880824566 39.96433913707733 0.04637644160538912 -3.4653822796574176 3.0726101170017186 1.462979776109599 -0.5440707245292661 10.071072950048782 2.3214032870820906 2.454176615018438 -5.546719785339192 0.8297723081473162 -3.0782742648143633 9.363441446373365 -1.3780067800276454 5.3193000991871555 -16.105316270417852 -2.7767982525864627 0.3253038208385774 0.31802422656551893 -0.7962335713624678 -0.2951896768705498 0.7442540708705253 0.4216646632576462 0.39269703057482874 0.6505844830670001 0.5753609950558581 29.452506531336173 19.953391914836967 9.99901616185244 -14.920869260783846 -18.374837867451348 40.71164990637365 -2.6808996218751338 -6.897311146533759 -2.9056235177391314 0.4275740041893237 0.1803522122512445 0.466714776754052 -0.24095482657032802 0.7201603117690408 1.1098858898897968 -0.008722645157995522 -0.05089312688794017 0.09296030200668837 4.815051992200855 2.5815447020003663 0.865624984956918 0.6165986356957803 -0.26901825960091214 0.2468308436493753 1.79896275779805 1.3435302262532425 -0.8187667923211629 0.015335055347148003 -0.3261307539758249 0.06859752416535535 6.270488891589233 -0.3905825534181809 -0.7596316014565743 -0.055642229455001434 0.04077641610796124 0.8674550487676583 1.539132543373833 0.09863353450453766 -0.26283808566038774 0.3779285607636744 0.6692656907772198 0.1401532672932667 -36.48444241395818 19.963951387293807 -14.82973063159378 14.95541635760577 -17.662467920039237 -38.33673166025769 2.797469179779272 -7.637717312941481 2.892541144157618 0.6928022558528192 0.026302178039646407 0.28239102294385665 0.15457649238621798 0.9165427645588937 0.2601514467586191 0.22363209279321375 -0.13282919674932384 -0.409025184755126 -4.557207228390997 3.541413170733649 -0.16103537006139063 0.6474161290657605 0.6883815759950871 -0.8494538717666782 -1.6086297181787128 -0.6228610653910358 -0.8611247440675259 -0.3529999177578617 0.2938848972956658 -0.05507096150416656 -5.974442025977846 -0.3694705987762301 0.09663330293392884 0.8240479159317579 -0.8103138996147432 -0.5512856988094739 -1.566759484627771 0.29876485401422836 0.10963958393921984 -0.5870764770297224 0.6173866687712706 -0.2672394222089469 -19.206423644184156 -22.419337799568982 -17.578413904565767 -3.5278339008900175 38.55852156298634 4.189773786895575 -2.4353092846533353 -6.600211578016544 -5.984854222480708 0.6286280929280537 -0.9464958121120441 -0.023128167788000326 22.587421924853828 -21.966352823624568 19.56026330168396 2.903762291190303 38.38776000354685 -3.5436741767923348 3.912574828298839 -5.519966788133899 8.201531499679461
-3.3295300789177418 45.039793848991394 0.0426515587605536 -4.085256524668748 3.56518585758329 1.6494570672207582 -0.9267691585719895 11.194509294921648 2.6804484025030897 2.5795415355828486 -6.563733245206799 0.9493484833075823 -3.332582698181448 10.754647673693766 -1.8194328347405782 6.037296414928066 -18.10811215017318 -3.3314890141405997 0.25624364473844624 0.15642173735960568 -0.5490018543057509 -0.15493302292480737 0.6015882277776194 0.3773093080658776 0.2925031713709134 0.4129098014847179 0.4428081008028024 33.854952772192085 22.486606625157147 11.38645297852464 -16.968645351318294 -20.896434425993334 46.604136065613694 -3.0931126373428044 -7.9663663790086305 -3.4266858429147105 0.29882408456093706 0.05265264765115892 0.3523045191229898 -0.2974194134694417 0.5932390152083665 0.9236322874739554 0.05721832228640832 -0.08912633806670303 0.08993794329895773 5.516429603917478 3.2351942324574097 0.744692216833611 0.5090131777885889 -0.2942467372391178 0.26226568379142895 1.9757244249799835 1.2367770375685878 -0.612120966447161 -0.08252053128309578 -0.304183381821017 0.08934112883980141 7.207108036718028 -0.1585698318535747 -0.6299643554061433 -0.01697001853950658 -0.06014347086038529 0.6665688866329754 1.6900575259163122 -0.1001313202843274 -0.213359394900022 0.30357682900620814 0.5416872553131961 0.10464087264254898 -41.52526887049474 22.707650329718977 -17.42799606356916 16.89739281789672 -20.080368546602088 -44.1091430938889 3.2913178968674046 -9.06996785453178 3.211645874633321 0.5314429854143818 -0.031148597462167135 0.1188508944477754 0.09994236950424135 0.6991521439859626 0.1965617986164186 0.2368157319333003 -0.12087415122640656 -0.2796687656727834 -5.212592053784046 4.0101688400282125 -0.19513364874965125 0.5089206500696765 0.6333731534105085 -0.7410660267145689 -1.9036902617852671 -0.26675271786973065 -0.6480041656646163 -0.3615403222630222 0.17736571203665644 -0.17643787352659251 -6.899785382560596 -0.09108302718135301 0.0448080686676935 0.788047803085619 -0.6565606851473498 -0.43164367635674056 -1.8542921992736192 0.06191651859981184 0.19532665495455698 -0.4122560243151007 0.5587756415646276 -0.23509777927448341 -22.143801138261498 -25.578619602043577 -19.994917757443353 -4.1056693987769775 44.1006941498856 4.699268332938091 -2.928775084261124 -7.481980462128727 -6.991273205171978 0.5353976115829664 -0.7005693015170344 -0.08528240898744034 26.126819122565266 -24.7538384012714 22.22423344592757 3.4038281879704395 44.047719202682984 -4.257184338909016 4.2494427463716296 -6.53374700720315 9.497560748463028
-3.9321870543062687 49.08950924873352 0.07033925503492355 -4.601962896701151 3.9584421098964135 1.8468477199651285 -1.2554092600158537 12.065903121684583 2.977593434466967 2.6281739765772203 -7.351897801838542 1.0251950659979294 -3.6039228485741943 11.868572980147391 -2.165542639090631 6.608949951285929 -19.71562961473424 -3.726788560232615 0.19388705918484458 0.06669733085370343 -0.36861666504741986 -0.08817464725539695 0.4912174400712381 0.3211200098068272 0.19599836137074544 0.24781954021216107 0.33534275817546805 37.39792898902861 24.49090685407717 12.54796250537845 -18.641788980972127 -22.97824876425654 51.42373269493355 -3.4504450828294226 -8.818685194967012 -3.8846214253469156 0.18909021199465934 -0.022478045836806182 0.27060729243914505 -0.289594951527516 0.46118995412830505 0.7284413825291524 0.09831135501499667 -0.09664626962118128 0.0988769533752119 6.077959946151736 3.775366146270215 0.6261085001762595 0.3852044731378834 -0.2594207765999864 0.24922727955269774 2.1581126739341263 1.1533667674243921 -0.41482012001820584 -0.1354315521839516 -0.2685394526679237 0.08643392285260895 7.9609389399394095 0.036661147091749224 -0.4847880976281404 0.0038982370872922187 -0.11767586178669519 0.5007808254871666 1.8140203367101662 -0.25929793991663197 -0.17268711249647703 0.2500281992741611 0.4260551408726421 0.09358842594627831 -45.601573578482544 24.91036584648058 -19.553023301163744 18.45174238241111 -22.025293941067194 -48.79265844928001 3.6793242950297267 -10.241284679260085 3.457609524381943 0.41823548140747663 -0.06132317259609343 0.0024361897387260322 0.05920901560456292 0.5106853468356256 0.15444490452298945 0.20601578094370795 -0.09043666717028766 -0.19271736260905345 -5.784742486404028 4.37638223898314 -0.22305610240689805 0.394872339103772 0.5510104101694107 -0.6176982961521523 -2.145969024476667 0.01934597721553221 -0.4995860759909433 -0.3299333817549502 0.10944124164902501 -0.20294615786052933 -7.679956056542486 0.11464749998301434 0.04180529339297375 0.6980905831785544 -0.5148583789750918 -0.3290332108471101 -2.0268443354927093 -0.10759554310838775 0.22050646749492633 -0.28532320181020193 0.4875927440560769 -0.20593479250923305 -24.549960669641102 -28.118147114704144 -21.958467370227787 -4.5456087134066685 48.575922886537164 5.136868307777053 -3.3243232919276102 -8.178938087678706 -7.7939852109622025 0.4315169443311251 -0.5147806855732829 -0.10365092209972027 29.00564823507726 -26.981122108477535 24.372843619178916 3.8491206633621284 48.60816479451421 -4.821037799234725 4.478473930280967 -7.3733727703627086 10.564342381717932
